<?xml version="1.0" standalone="no"?>
<!DOCTYPE svg PUBLIC "-//W3C//DTD SVG 20010904//EN"
 "http://www.w3.org/TR/2001/REC-SVG-20010904/DTD/svg10.dtd">
<svg version="1.0" xmlns="http://www.w3.org/2000/svg"
 width="500.000000pt" height="500.000000pt" viewBox="0 0 500.000000 500.000000"
 preserveAspectRatio="xMidYMid meet">

<g transform="translate(0.000000,500.000000) scale(0.100000,-0.100000)"
fill="#000000" stroke="none">
<path d="M2476 4698 c-3 -18 -5 -223 -3 -454 l2 -422 -100 -7 c-398 -28 -695
-169 -695 -331 0 -59 13 -87 63 -137 53 -53 130 -96 244 -135 285 -98 737 -98
1027 -1 331 111 410 298 187 446 -120 81 -346 143 -568 158 l-103 7 -2 452 -3
451 -22 3 c-18 3 -23 -3 -27 -30z m-56 -912 c0 -2 -26 -21 -57 -42 -32 -21
-71 -48 -86 -61 -16 -13 -41 -23 -55 -23 -23 0 -18 6 38 42 36 23 78 52 93 65
24 19 67 32 67 19z m220 -3 c0 -8 -95 -73 -105 -73 -16 0 -1 29 27 52 31 25
78 38 78 21z m-354 -16 c-10 -7 -50 -34 -88 -62 -83 -59 -122 -81 -163 -91
-20 -4 13 23 95 79 72 48 136 85 150 85 23 1 24 0 6 -11z m464 9 c0 -2 -31
-25 -69 -51 -45 -31 -76 -46 -92 -43 -20 3 -15 9 41 51 40 30 74 47 92 47 15
0 28 -2 28 -4z m-279 -24 c-14 -26 -80 -70 -116 -77 -27 -5 -28 -4 -11 7 10 7
41 30 70 50 57 42 71 46 57 20z m362 12 c10 -11 -114 -94 -140 -94 -35 0 -28
11 35 57 53 39 90 52 105 37z m-678 -12 c-11 -10 -258 -189 -368 -267 -55 -38
-71 -45 -78 -34 -5 8 -9 17 -9 20 0 8 317 227 381 264 41 23 95 36 74 17z
m765 -11 c0 -5 -24 -25 -54 -46 -38 -26 -62 -36 -82 -33 -28 3 -28 4 30 46 54
38 106 55 106 33z m74 -19 c7 -12 -89 -82 -112 -82 -37 0 -31 14 20 51 52 37
82 47 92 31z m-1019 -21 c-31 -29 -255 -184 -260 -179 -10 10 38 71 80 101 37
26 176 96 195 97 2 0 -4 -8 -15 -19z m1095 -10 c0 -13 -90 -71 -110 -71 -33 0
-22 18 33 53 47 31 77 37 77 18z m70 -30 c0 -15 -101 -73 -117 -67 -19 8 -19
7 42 50 42 31 75 38 75 17z m-670 -123 c0 -120 6 -142 36 -136 17 3 19 15 22
127 l3 124 102 -6 c246 -15 458 -85 543 -179 50 -55 46 -81 -18 -121 -93 -59
-216 -100 -378 -129 -99 -17 -460 -17 -560 0 -166 29 -334 91 -409 150 -31 25
-23 59 25 107 93 93 338 168 567 174 l67 1 0 -112z m725 93 c8 -14 -83 -74
-102 -67 -18 7 -19 6 32 45 42 31 60 37 70 22z m49 -40 c6 -10 -65 -71 -82
-71 -27 0 -18 21 20 49 47 33 54 35 62 22z m11 -88 c-29 -25 -41 -30 -51 -22
-18 15 -10 25 34 48 53 27 62 13 17 -26z m24 -59 c-25 -27 -49 -32 -49 -10 0
17 63 57 69 44 2 -5 -7 -20 -20 -34z m-1509 -28 c0 -33 -20 -44 -36 -21 -12
15 -11 20 4 31 25 19 32 17 32 -10z m26 -73 c-7 -7 -26 7 -26 19 0 6 6 6 15
-2 9 -7 13 -15 11 -17z m1424 -3 c-31 -24 -108 -66 -97 -54 15 17 112 80 117
77 3 -3 -6 -13 -20 -23z m-1363 -36 c-7 -7 -37 7 -37 17 0 6 9 5 21 -1 11 -7
19 -14 16 -16z m53 -24 c13 -8 13 -10 -2 -10 -9 0 -20 5 -23 10 -8 13 5 13 25
0z m75 -30 c3 -5 -1 -10 -9 -10 -8 0 -18 5 -21 10 -3 6 1 10 9 10 8 0 18 -4
21 -10z m78 -27 c-7 -2 -19 -2 -25 0 -7 3 -2 5 12 5 14 0 19 -2 13 -5z m892
-3 c-11 -5 -29 -8 -40 -8 -16 0 -15 2 5 8 34 11 60 11 35 0z m-805 -19 c0 -5
-9 -7 -20 -4 -11 3 -20 7 -20 9 0 2 9 4 20 4 11 0 20 -4 20 -9z m90 -17 c0 -2
-9 -4 -20 -4 -11 0 -20 4 -20 9 0 5 9 7 20 4 11 -3 20 -7 20 -9z m548 -1 c-10
-2 -26 -2 -35 0 -10 3 -2 5 17 5 19 0 27 -2 18 -5z m-455 -10 c-7 -2 -21 -2
-30 0 -10 3 -4 5 12 5 17 0 24 -2 18 -5z m335 0 c-10 -2 -26 -2 -35 0 -10 3
-2 5 17 5 19 0 27 -2 18 -5z m-235 -10 c-7 -2 -21 -2 -30 0 -10 3 -4 5 12 5
17 0 24 -2 18 -5z m110 0 c-7 -2 -21 -2 -30 0 -10 3 -4 5 12 5 17 0 24 -2 18
-5z"/>
<path d="M3322 3370 c-27 -48 -129 -122 -220 -160 -88 -37 -243 -76 -365 -91
-144 -17 -474 -6 -597 20 -236 51 -400 134 -461 236 -19 29 -19 6 -19 -1045 0
-1023 1 -1077 19 -1116 63 -139 350 -254 699 -280 l92 -7 0 -316 c0 -174 4
-322 9 -329 5 -8 17 -12 27 -10 18 3 19 19 22 330 l2 326 103 7 c272 18 529
102 637 208 81 79 75 -11 78 1142 1 567 1 1051 0 1077 l-3 48 -23 -40z m-1617
-70 c3 -5 -1 -10 -9 -10 -9 0 -16 5 -16 10 0 6 4 10 9 10 6 0 13 -4 16 -10z
m44 -34 c9 -11 6 -18 -18 -35 -16 -12 -34 -21 -40 -21 -20 0 -12 38 11 54 28
20 32 20 47 2z m1565 -5 c-45 -41 -569 -413 -789 -560 -233 -156 -246 -165
-470 -331 -277 -205 -257 -192 -274 -175 -8 8 -13 16 -10 18 23 20 242 168
335 227 65 41 211 143 324 225 113 83 260 190 327 238 176 126 556 378 562
372 2 -3 0 -9 -5 -14z m-1512 -32 c18 -10 15 -14 -41 -55 -67 -49 -81 -53 -81
-25 0 11 20 34 48 55 55 41 48 39 74 25z m78 -44 c0 -2 -41 -34 -92 -69 -56
-40 -96 -62 -102 -56 -16 16 2 37 81 93 61 43 82 53 95 46 10 -5 18 -12 18
-14z m1415 -17 c-35 -27 -275 -203 -370 -272 -38 -27 -207 -143 -375 -256
-168 -113 -377 -260 -465 -326 -88 -66 -175 -130 -193 -143 -31 -22 -62 -23
-62 -2 0 6 105 80 234 165 128 85 310 210 403 279 93 68 211 155 263 193 149
108 582 395 588 389 3 -2 -8 -15 -23 -27z m-1345 -7 c0 -16 -254 -190 -264
-181 -17 17 4 39 111 114 97 68 153 93 153 67z m1125 0 c-27 -24 -292 -209
-554 -385 -162 -109 -340 -232 -395 -274 -109 -82 -203 -151 -306 -226 -61
-44 -95 -55 -95 -29 0 15 90 79 385 275 129 86 278 188 330 227 302 222 537
386 578 402 53 20 71 24 57 10z m-1045 -27 c0 -2 -167 -124 -230 -166 -14 -10
-44 -31 -67 -47 -42 -30 -53 -30 -53 -2 1 18 -2 16 178 138 91 63 139 89 152
86 11 -3 20 -7 20 -9z m73 -24 c-10 -11 -215 -159 -320 -233 -44 -31 -86 -57
-92 -57 -25 0 -8 39 27 63 20 14 109 75 196 135 107 72 166 107 179 104 10 -2
15 -8 10 -12z m787 -4 c-8 -8 -141 -99 -295 -202 -154 -103 -327 -222 -385
-264 -58 -42 -163 -119 -235 -172 -260 -190 -285 -205 -285 -165 0 13 185 143
455 320 94 62 240 164 325 228 263 195 354 257 385 262 17 2 34 5 40 6 5 0 3
-5 -5 -13z m430 7 c0 -5 -53 -46 -117 -93 -65 -47 -144 -105 -178 -131 -90
-68 -294 -208 -535 -369 -118 -79 -292 -201 -387 -272 -134 -101 -177 -128
-193 -123 -28 9 -20 18 63 72 222 143 315 207 437 297 334 247 879 625 903
626 4 0 7 -3 7 -7z m-1131 -12 c11 -7 6 -13 -20 -26 -19 -10 -86 -57 -149
-105 -150 -113 -318 -230 -330 -230 -6 0 -10 8 -10 19 0 13 39 46 123 104 148
103 360 245 367 246 3 0 11 -3 19 -8z m97 -20 c-3 -5 -27 -21 -54 -37 -26 -15
-77 -50 -114 -78 -215 -162 -421 -306 -430 -300 -22 14 0 38 85 97 160 112
379 257 385 257 4 0 25 16 47 35 35 30 95 50 81 26z m463 5 c-2 -2 -116 -79
-254 -171 -137 -92 -335 -232 -440 -309 -235 -175 -350 -256 -364 -256 -6 0
-11 8 -11 18 0 19 175 146 405 293 120 77 341 234 525 372 57 43 83 57 109 57
19 0 32 -2 30 -4z m-359 -11 c0 -2 -21 -16 -47 -31 -27 -15 -118 -80 -203
-143 -231 -173 -443 -320 -452 -315 -34 21 19 62 498 377 72 48 137 94 144
102 11 13 60 22 60 10z m105 -3 c-6 -5 -62 -43 -126 -84 -64 -42 -189 -131
-278 -197 -239 -180 -382 -281 -397 -281 -30 0 -11 32 44 72 31 23 147 102
257 175 227 150 431 292 447 311 6 6 22 12 36 12 15 0 22 -4 17 -8z m124 4
c-2 -2 -87 -59 -188 -126 -101 -68 -254 -175 -340 -240 -212 -158 -386 -280
-400 -280 -6 0 -11 8 -11 18 0 19 108 97 410 295 188 124 320 216 420 294 36
28 65 43 84 43 16 0 27 -2 25 -4z m701 -40 c0 -5 -247 -189 -420 -313 -69 -49
-235 -163 -370 -253 -135 -90 -309 -212 -387 -271 -104 -79 -148 -106 -163
-102 -19 5 -29 23 -12 23 15 0 370 240 532 359 231 171 373 271 600 423 188
126 220 145 220 134z m0 -80 c0 -15 -518 -385 -835 -596 -126 -84 -269 -184
-317 -221 -71 -56 -91 -67 -109 -61 -19 7 -12 14 57 57 96 59 174 113 319 220
222 165 376 273 620 437 227 153 265 177 265 164z m0 -74 c0 -19 -501 -380
-825 -594 -121 -80 -242 -164 -270 -187 -28 -23 -60 -41 -74 -41 -33 0 -15 19
51 55 29 15 112 72 183 125 235 175 456 332 695 492 129 87 236 158 237 158 2
0 3 -4 3 -8z m0 -81 c0 -7 -181 -145 -304 -232 -27 -19 -79 -55 -115 -81 -36
-26 -181 -125 -321 -219 -140 -95 -271 -185 -290 -201 -33 -27 -70 -37 -70
-20 0 5 10 13 23 19 12 6 74 48 137 93 63 46 203 147 310 224 158 114 618 426
628 426 1 0 2 -4 2 -9z m-1 -84 c-197 -160 -968 -692 -991 -685 -6 2 4 15 23
28 19 13 102 74 184 135 261 193 773 540 783 530 3 -3 3 -7 1 -8z m0 -74 c-2
-28 -843 -613 -880 -613 -31 0 237 195 655 477 116 78 214 142 219 142 4 1 7
-2 6 -6z m1 -77 c0 -12 -356 -272 -599 -438 -99 -68 -151 -98 -167 -96 -26 3
154 135 540 395 194 131 226 151 226 139z m0 -80 c0 -8 -430 -323 -587 -429
-26 -18 -51 -27 -69 -25 -24 3 -15 12 92 88 147 104 546 370 556 370 5 0 8 -2
8 -4z m0 -75 c0 -8 -151 -123 -368 -279 -57 -41 -120 -78 -140 -83 -34 -7 -51
-5 -41 6 6 6 543 365 547 365 1 0 2 -4 2 -9z m-2 -80 c-1 -5 -72 -61 -157
-124 -99 -74 -169 -119 -195 -126 -22 -5 -42 -9 -43 -7 -3 3 388 266 395 266
2 0 2 -4 0 -9z m-1467 -208 c149 -72 336 -110 589 -120 353 -13 686 66 835
198 43 39 46 40 25 12 -80 -110 -282 -202 -525 -240 -133 -21 -407 -21 -540 0
-214 34 -387 103 -487 196 -32 29 -58 58 -58 63 0 5 22 -10 48 -34 27 -24 78
-57 113 -75z m1389 83 c0 -6 -66 -46 -76 -46 -5 0 7 11 26 25 33 23 50 30 50
21z m79 -39 c-2 -2 -22 -16 -44 -32 l-40 -28 39 37 c21 20 41 35 44 32 3 -4 3
-7 1 -9z m-1589 -28 c0 -5 -9 -13 -20 -19 -16 -9 -22 -8 -26 5 -9 23 15 48 32
34 8 -6 14 -15 14 -20z m47 -36 c2 -6 -16 -25 -42 -43 -40 -28 -46 -29 -52
-14 -5 12 4 26 28 46 34 29 59 33 66 11z m1428 -19 c-16 -14 -64 -49 -105 -79
-41 -30 -113 -82 -160 -116 -46 -34 -210 -146 -365 -249 -154 -103 -361 -248
-460 -322 -271 -201 -284 -210 -300 -204 -8 3 -15 10 -15 16 0 5 109 82 242
171 133 88 348 238 477 333 314 230 544 387 611 418 30 14 64 33 75 42 33 25
33 17 0 -10z m115 11 c0 -16 -445 -335 -808 -578 -144 -97 -344 -237 -443
-312 -157 -117 -183 -133 -201 -124 -11 6 -16 14 -12 19 5 4 122 82 259 174
138 92 284 192 326 224 262 196 849 601 872 602 4 0 7 -2 7 -5z m-1484 -30 c4
-11 -127 -105 -145 -105 -6 0 -11 8 -11 19 0 11 23 33 63 59 60 40 87 48 93
27z m64 -25 c17 -11 23 -5 -118 -102 -45 -32 -87 -58 -92 -58 -6 0 -10 9 -10
19 0 13 31 40 97 85 53 36 99 66 102 66 4 0 13 -5 21 -10z m70 -30 c8 -5 12
-11 10 -13 -23 -20 -285 -197 -292 -197 -5 0 -8 9 -6 20 3 19 239 197 263 199
6 0 17 -3 25 -9z m1350 6 c0 -5 -190 -146 -385 -286 -71 -52 -247 -173 -390
-269 -206 -138 -430 -297 -581 -412 -6 -5 -18 -3 -28 4 -16 11 -12 16 36 47
207 133 312 205 523 360 294 216 347 252 605 424 186 124 220 144 220 132z
m-1267 -32 c6 -6 -84 -73 -270 -203 -94 -65 -103 -69 -103 -42 0 13 18 33 53
57 289 201 300 208 320 188z m877 -24 c-31 -24 -219 -152 -485 -331 -110 -74
-279 -193 -375 -265 -276 -206 -296 -219 -314 -204 -20 16 -33 6 289 222 143
96 334 228 424 293 316 232 406 294 431 298 51 8 55 7 30 -13z m-797 4 c3 -4
-33 -35 -81 -69 -167 -121 -360 -255 -367 -255 -3 0 -5 10 -3 22 2 14 37 45
103 91 305 214 330 229 348 211z m94 -20 c-4 -4 -33 -25 -66 -48 -33 -23 -112
-79 -176 -126 -208 -151 -293 -209 -299 -203 -21 21 11 49 182 165 103 70 216
147 252 172 36 24 76 45 89 45 13 1 21 -2 18 -5z m553 -8 c-8 -8 -121 -85
-250 -172 -129 -87 -297 -203 -373 -258 -339 -249 -432 -314 -439 -310 -18 12
-5 41 30 65 115 79 300 203 387 258 55 35 183 125 285 199 308 226 302 222
365 231 5 0 3 -5 -5 -13z m-460 -4 c0 -4 -17 -16 -37 -27 -20 -11 -91 -60
-158 -109 -240 -179 -433 -314 -439 -309 -24 24 9 51 267 224 149 100 286 192
302 205 29 23 65 32 65 16z m990 -5 c-138 -112 -452 -334 -785 -557 -126 -85
-281 -192 -343 -239 -148 -112 -158 -119 -173 -104 -12 12 -12 13 141 112 58
37 182 123 275 191 407 296 861 608 885 609 13 0 13 -1 0 -12z m-880 -1 c0 -3
-26 -19 -57 -37 -62 -35 -109 -68 -359 -254 -214 -158 -310 -225 -323 -225 -6
0 -11 8 -11 18 0 21 60 65 390 284 129 86 251 170 270 187 20 17 47 30 63 31
15 0 27 -2 27 -4z m99 -3 c0 -5 -64 -50 -142 -101 -78 -51 -187 -127 -242
-168 -169 -128 -445 -324 -455 -324 -6 0 -10 8 -10 19 0 19 150 127 445 320
83 54 199 134 260 179 96 72 147 98 144 75z m116 -1 c-6 -5 -95 -66 -198 -136
-104 -69 -275 -191 -380 -269 -106 -79 -232 -172 -282 -206 -78 -54 -90 -60
-96 -44 -4 11 0 25 10 35 9 9 153 108 321 220 168 112 348 235 400 274 170
125 184 134 209 134 14 0 21 -4 16 -8z m669 -71 c-5 -5 -72 -55 -149 -111 -77
-57 -162 -120 -190 -140 -89 -65 -156 -111 -420 -288 -143 -96 -302 -206 -352
-244 -71 -53 -98 -68 -114 -63 -18 6 -11 13 47 48 70 41 192 127 389 272 255
188 292 214 574 402 118 78 217 140 220 138 2 -3 0 -9 -5 -14z m6 -69 c0 -5
-57 -50 -127 -100 -71 -50 -199 -142 -285 -204 -86 -62 -257 -180 -379 -263
-123 -82 -247 -169 -276 -192 -52 -42 -76 -52 -87 -34 -3 5 15 21 41 36 55 32
195 130 370 260 205 151 717 503 736 504 4 1 7 -3 7 -7z m0 -79 c-1 -15 -398
-300 -720 -518 -129 -87 -250 -171 -268 -187 -18 -15 -44 -28 -58 -28 -33 0
-24 12 33 46 26 15 145 98 263 184 293 213 722 507 743 509 4 1 7 -2 7 -6z m0
-78 c0 -13 -454 -341 -700 -504 -102 -68 -195 -132 -207 -143 -12 -11 -31 -18
-45 -16 -20 3 -13 10 47 51 39 26 135 96 215 154 150 111 669 463 682 463 5 0
8 -2 8 -5z m-25 -101 c-42 -34 -546 -394 -682 -487 -75 -52 -121 -77 -140 -77
-26 1 -27 1 -8 12 11 6 90 61 175 123 85 61 191 135 235 165 293 200 441 297
445 293 3 -3 -8 -16 -25 -29z m25 -52 c0 -9 -129 -107 -365 -277 -228 -165
-336 -235 -361 -235 -13 0 -24 2 -24 4 0 8 300 220 490 346 102 67 201 133
220 146 39 27 40 27 40 16z m-11 -95 c-97 -74 -467 -342 -511 -371 -38 -26
-65 -36 -83 -34 -25 3 -20 8 56 63 155 111 543 365 548 359 3 -3 -1 -11 -10
-17z m9 -66 c-5 -14 -399 -302 -427 -313 -14 -5 -34 -8 -45 -6 -15 2 51 51
219 165 132 89 244 162 248 162 5 1 7 -3 5 -8z m-18 -90 c0 -25 -265 -198
-291 -189 -7 2 278 198 288 198 2 0 3 -4 3 -9z"/>
</g>
</svg>
